<svg width="56" height="56" viewBox="0 0 56 56" fill="none" xmlns="http://www.w3.org/2000/svg">
<rect width="56" height="56" rx="28" fill="#F4FAFE"/>
<rect x="6" y="6" width="44" height="44" rx="22" fill="#E9F4FF"/>
<path fill-rule="evenodd" clip-rule="evenodd" d="M36.7996 29.8616C36.7996 30.453 36.3196 30.9282 35.7329 30.9282H34.1329V26.3949H35.7329C36.3196 26.3949 36.7996 26.8744 36.7996 27.4616V29.8616ZM29.8663 37.3336H27.4663C27.3169 37.3336 27.1996 37.2104 27.1996 37.0669V36.0002C27.1996 35.8504 27.3169 35.7336 27.4663 35.7336H29.8663V37.3336ZM21.8663 30.9282H20.2663C19.6796 30.9282 19.1996 30.453 19.1996 29.8616V27.4616C19.1996 26.8744 19.6796 26.3949 20.2663 26.3949H21.8663V30.9282ZM35.7329 24.7949V24.4104C35.7329 20.4269 32.8743 17.0669 29.4876 17.0669H26.5116C23.1249 17.0669 20.2663 20.4269 20.2663 24.4104V24.7949C18.7943 24.7949 17.5996 25.989 17.5996 27.4616V29.8616C17.5996 31.3389 18.7943 32.5282 20.2663 32.5282H22.3996C22.9863 32.5282 23.4663 32.053 23.4663 31.4616V25.8616C23.4663 25.2744 22.9863 24.7949 22.3996 24.7949H21.8663V24.4104C21.8663 21.2957 23.9943 18.6669 26.5116 18.6669H29.4876C32.0049 18.6669 34.1329 21.2957 34.1329 24.4104V24.7949H33.5996C33.0129 24.7949 32.5329 25.2744 32.5329 25.8616V31.4616C32.5329 32.053 33.0129 32.5282 33.5996 32.5282H34.6663V34.9336C34.6663 35.3704 34.3089 35.7336 33.8663 35.7336H31.4663V34.9336C31.4663 34.4909 31.1089 34.1336 30.6663 34.1336H27.4663C26.4369 34.1336 25.5996 34.9704 25.5996 36.0002V37.0669C25.5996 38.0957 26.4369 38.9336 27.4663 38.9336H30.6663C31.1089 38.9336 31.4663 38.5704 31.4663 38.1336V37.3336H33.8663C35.1889 37.3336 36.2663 36.2557 36.2663 34.9336V32.4744C37.4823 32.229 38.3996 31.1576 38.3996 29.8616V27.4616C38.3996 25.989 37.2049 24.7949 35.7329 24.7949Z" fill="#1238BF"/>
</svg>
